<svg width="512" height="512" version="1.1" viewBox="0 0 512 512" xmlns="http://www.w3.org/2000/svg"><path d="m433.15 76.569c-45.316-64.857-134.81-84.08-199.52-42.854l-113.65 72.435a130.38 130.38 0 0 0-58.902 87.328 137.31 137.31 0 0 0 13.539 88.154 130.74 130.74 0 0 0-19.504 48.726 138.95 138.95 0 0 0 23.736 105.07c45.323 64.863 134.82 84.078 199.52 42.853l113.65-72.431a130.36 130.36 0 0 0 58.902-87.33 137.36 137.36 0 0 0-13.53-88.155 130.71 130.71 0 0 0 19.494-48.724 138.91 138.91 0 0 0-23.734-105.07" fill="#7a7a7a"/><path d="m222.52 441.6c-36.644 9.5282-75.339-4.8157-96.924-35.923a83.567 83.567 0 0 1-14.281-63.21 79.275 79.275 0 0 1 2.7172-10.616l2.1413-6.5271 5.8228 4.2779a146.64 146.64 0 0 0 44.47 22.217l4.224 1.2817-0.38862 4.2177a25.485 25.485 0 0 0 4.5841 16.903 27.192 27.192 0 0 0 29.181 10.83 25.04 25.04 0 0 0 6.984-3.0693l113.68-72.444a23.669 23.669 0 0 0 10.682-15.826 25.257 25.257 0 0 0-4.3033-19.051 27.213 27.213 0 0 0-29.192-10.837 25.03 25.03 0 0 0-6.9729 3.0661l-43.382 27.653a82.954 82.954 0 0 1-23.084 10.137c-36.642 9.5281-75.339-4.8157-96.914-35.925a83.562 83.562 0 0 1-14.282-63.208 78.401 78.401 0 0 1 35.435-52.525l113.67-72.452a82.827 82.827 0 0 1 23.099-10.148c36.642-9.5281 75.339 4.8157 96.914 35.923a83.567 83.567 0 0 1 14.282 63.21 80.195 80.195 0 0 1-2.7171 10.615l-2.1413 6.5287-5.8213-4.2715a146.52 146.52 0 0 0-44.472-22.227l-4.2256-1.2832 0.3902-4.2161a25.536 25.536 0 0 0-4.5841-16.903 27.192 27.192 0 0 0-29.183-10.83 25.04 25.04 0 0 0-6.9823 3.0693l-113.68 72.447a23.631 23.631 0 0 0-10.675 15.822 25.221 25.221 0 0 0 4.297 19.053 27.213 27.213 0 0 0 29.192 10.837 25.126 25.126 0 0 0 6.9823-3.0693l43.374-27.643a82.714 82.714 0 0 1 23.082-10.147c36.642-9.5266 75.339 4.8172 96.914 35.927a83.562 83.562 0 0 1 14.281 63.206 78.441 78.441 0 0 1-35.435 52.535l-113.67 72.445a82.827 82.827 0 0 1-23.099 10.148" fill="#fafafa"/></svg>
