<svg version="1.1" viewBox="0 0 512 512" xmlns="http://www.w3.org/2000/svg"><path d="m346.64 25.973c-10.282-16.486 24.58 3.4367 44.526 32.947 36.048 53.331 23.325 107.56-22.903 141.72-11.61 8.5774-26.204 16.951-42.931 23.704-7.6438 2.0199-41.942-3.8386-25.066-11.122 83.551-36.055 114.28-117.5 46.37-187.25zm-91.101 466.03c-73.024 0-132.24-58.839-132.24-131.4 0-58.779 38.873-108.56 92.463-125.34-23.704-5.078-52.594-20.288-72.033-34.652-46.229-34.146-58.951-88.38-22.9-141.71 19.94-29.51 54.811-49.432 44.53-32.946-39.17 40.229-45.53 84.349-27.86 121.4 28.686 60.159 94.864 68.178 155.36 87.15 54.808 16.04 94.929 66.443 94.929 126.09 0 72.552-59.221 131.4-132.24 131.4zm0-36.498c-62.761 0-119-37.998-119-94.889 0-56.894 56.244-103.04 119-103.04 62.761 0 119 46.14 119 103.04 0 56.895-56.239 94.889-119 94.889z" fill="#808080" fill-rule="evenodd"/></svg>
