<svg width="512" height="512" version="1.1" viewBox="0 0 512 512" xmlns="http://www.w3.org/2000/svg"><path d="m395.4 114.81c-35.658-51.035-106.08-66.161-157-33.721l-89.43 56.998a102.59 102.59 0 0 0-46.349 68.717 108.05 108.05 0 0 0 10.654 69.367 102.88 102.88 0 0 0-15.347 38.342 109.34 109.34 0 0 0 18.677 82.68c35.664 51.04 106.09 66.16 157 33.72l89.43-56.995a102.58 102.58 0 0 0 46.349-68.719 108.09 108.09 0 0 0-10.646-69.368 102.86 102.86 0 0 0 15.34-38.34 109.31 109.31 0 0 0-18.676-82.68" fill="#ff3e00"/><path d="m229.65 402.05c-28.835 7.4976-59.283-3.7894-76.268-28.268a65.758 65.758 0 0 1-11.237-49.739 62.38 62.38 0 0 1 2.1381-8.3535l1.685-5.1361 4.5819 3.3662a115.39 115.39 0 0 0 34.993 17.483l3.3238 1.0085-0.3058 3.3188a20.054 20.054 0 0 0 3.6071 13.301 21.397 21.397 0 0 0 22.962 8.5223 19.703 19.703 0 0 0 5.4956-2.4152l89.453-57.005a18.625 18.625 0 0 0 8.4053-12.453 19.874 19.874 0 0 0-3.3862-14.991 21.413 21.413 0 0 0-22.971-8.5275 19.696 19.696 0 0 0-5.4869 2.4127l-34.136 21.76a65.275 65.275 0 0 1-18.164 7.977c-28.833 7.4976-59.283-3.7894-76.26-28.269a65.753 65.753 0 0 1-11.238-49.737 61.693 61.693 0 0 1 27.884-41.331l89.445-57.011a65.175 65.175 0 0 1 18.176-7.9853c28.833-7.4975 59.283 3.7894 76.26 28.268a65.758 65.758 0 0 1 11.238 49.739 63.104 63.104 0 0 1-2.138 8.3528l-1.685 5.1374-4.5807-3.3612a115.3 115.3 0 0 0-34.994-17.49l-3.3251-1.0097 0.30704-3.3176a20.094 20.094 0 0 0-3.6071-13.301 21.397 21.397 0 0 0-22.964-8.5223 19.703 19.703 0 0 0-5.4943 2.4152l-89.453 57.008a18.595 18.595 0 0 0-8.4 12.45 19.846 19.846 0 0 0 3.3812 14.993 21.413 21.413 0 0 0 22.971 8.5275 19.772 19.772 0 0 0 5.4943-2.4152l34.13-21.752a65.087 65.087 0 0 1 18.163-7.9845c28.833-7.4964 59.283 3.7906 76.26 28.271a65.753 65.753 0 0 1 11.237 49.736 61.724 61.724 0 0 1-27.884 41.339l-89.445 57.006a65.175 65.175 0 0 1-18.176 7.9853" fill="#fafafa"/></svg>
